<svg width="45" height="45" fill="none" xmlns="http://www.w3.org/2000/svg"><circle cx="22.5" cy="22.5" r="22.5" fill="#fff"/><path d="M45 22.5C45 34.926 34.926 45 22.5 45S0 34.926 0 22.5 10.074 0 22.5 0 45 10.074 45 22.5zm-40.467 0c0 9.923 8.044 17.967 17.967 17.967 9.923 0 17.967-8.044 17.967-17.967 0-9.923-8.044-17.967-17.967-17.967-9.923 0-17.967 8.044-17.967 17.967z" fill="#E3E3E3"/><path d="M45 22.5A22.5 22.5 0 0022.5 0v4.534A17.966 17.966 0 0140.466 22.5H45z" fill="#2C2C2C"/><path d="M23.915 18.2V28h-1.008v-8.904h-2.31V18.2h3.318z" fill="#000"/></svg>