<svg width="45" height="45" fill="none" xmlns="http://www.w3.org/2000/svg"><circle cx="22.5" cy="22.5" r="22.5" fill="#fff"/><path d="M45 22.5C45 34.926 34.926 45 22.5 45S0 34.926 0 22.5 10.074 0 22.5 0 45 10.074 45 22.5zm-40.467 0c0 9.923 8.044 17.967 17.967 17.967 9.923 0 17.967-8.044 17.967-17.967 0-9.923-8.044-17.967-17.967-17.967-9.923 0-17.967 8.044-17.967 17.967z" fill="#E3E3E3"/><path d="M22.5 45a22.5 22.5 0 000-45v4.534a17.966 17.966 0 010 35.932V45z" fill="#2C2C2C"/><path d="M26.442 27.104V28h-6.875v-.714l4.075-3.99c.513-.504.858-.938 1.035-1.302a2.48 2.48 0 00.28-1.12c0-.579-.2-1.027-.602-1.344-.392-.327-.956-.49-1.694-.49-1.148 0-2.039.364-2.674 1.092l-.713-.616a3.77 3.77 0 011.456-1.036c.597-.243 1.269-.364 2.015-.364 1 0 1.788.238 2.366.714.588.467.883 1.11.883 1.932 0 .504-.113.99-.337 1.456-.224.467-.648 1.003-1.273 1.61l-3.332 3.276h5.39z" fill="#000"/></svg>