<svg width="45" height="45" fill="none" xmlns="http://www.w3.org/2000/svg"><circle cx="22.5" cy="22.5" r="22.5" fill="#fff"/><path d="M45 22.5C45 34.926 34.926 45 22.5 45S0 34.926 0 22.5 10.074 0 22.5 0 45 10.074 45 22.5zm-40.467 0c0 9.923 8.044 17.967 17.967 17.967 9.923 0 17.967-8.044 17.967-17.967 0-9.923-8.044-17.967-17.967-17.967-9.923 0-17.967 8.044-17.967 17.967z" fill="#E3E3E3"/><path d="M0 22.5A22.5 22.5 0 1022.5 0v4.534A17.966 17.966 0 114.534 22.5H0z" fill="#2C2C2C"/><path d="M23.109 22.4c1.026.056 1.806.336 2.338.84.541.495.812 1.143.812 1.946 0 .56-.136 1.06-.406 1.498-.27.43-.672.77-1.204 1.022-.532.252-1.18.378-1.946.378-.71 0-1.381-.112-2.016-.336-.626-.233-1.13-.541-1.512-.924l.49-.798c.326.336.76.611 1.302.826a4.86 4.86 0 001.736.308c.803 0 1.423-.173 1.862-.518.438-.355.658-.84.658-1.456 0-.607-.22-1.083-.658-1.428-.439-.345-1.102-.518-1.988-.518h-.7v-.742l2.716-3.402H19.58V18.2h6.3v.714L23.109 22.4z" fill="#000"/></svg>