<svg width="45" height="45" fill="none" xmlns="http://www.w3.org/2000/svg"><circle cx="22.5" cy="22.5" r="22.5" fill="#fff"/><path d="M45 22.5C45 34.926 34.926 45 22.5 45S0 34.926 0 22.5 10.074 0 22.5 0 45 10.074 45 22.5zm-40.467 0c0 9.923 8.044 17.967 17.967 17.967 9.923 0 17.967-8.044 17.967-17.967 0-9.923-8.044-17.967-17.967-17.967-9.923 0-17.967 8.044-17.967 17.967z" fill="#E3E3E3"/><path d="M45 22.5C45 34.926 34.926 45 22.5 45S0 34.926 0 22.5 10.074 0 22.5 0 45 10.074 45 22.5zm-40.466 0c0 9.922 8.044 17.966 17.966 17.966S40.466 32.422 40.466 22.5 32.422 4.534 22.5 4.534 4.534 12.578 4.534 22.5z" fill="#39BF8E"/><path d="M26.43 25.424h-1.96V28h-1.008v-2.576h-5.53v-.728l5.194-6.496h1.12l-5.012 6.328h4.256V22.26h.98v2.268h1.96v.896z" fill="#000"/></svg>