<svg width="26" height="26" viewBox="0 0 26 26" fill="none" xmlns="http://www.w3.org/2000/svg">
<path d="M16.4223 8.07377C16.1486 7.76286 15.6747 7.73269 15.3638 8.00639C15.0529 8.28008 15.0227 8.754 15.2964 9.0649L16.4223 8.07377ZM19.7783 13.0211L20.3412 13.5167C20.5907 13.2334 20.5907 12.8089 20.3413 12.5256L19.7783 13.0211ZM15.2965 16.9767C15.0227 17.2876 15.0529 17.7615 15.3638 18.0352C15.6747 18.3089 16.1486 18.2788 16.4223 17.9679L15.2965 16.9767ZM15.2964 9.0649L19.2154 13.5167L20.3413 12.5256L16.4223 8.07377L15.2964 9.0649ZM19.2154 12.5255L15.2965 16.9767L16.4223 17.9679L20.3412 13.5167L19.2154 12.5255Z" fill="#979797"/>
</svg>
