<svg width="45" height="45" viewBox="0 0 45 45" fill="none" xmlns="http://www.w3.org/2000/svg">
<path d="M42.1875 21.0938H30.9375V14.0625H38.4229C38.704 14.0625 38.9786 14.1467 39.2113 14.3043C39.444 14.4618 39.6242 14.6855 39.7286 14.9465L42.1875 21.0938Z" stroke="#323F4C" stroke-width="1.5" stroke-linecap="round" stroke-linejoin="round"/>
<path d="M2.8125 25.3125H30.9375" stroke="#323F4C" stroke-width="1.5" stroke-linecap="round" stroke-linejoin="round"/>
<path d="M33.0469 37.9688C35.3768 37.9688 37.2656 36.08 37.2656 33.75C37.2656 31.42 35.3768 29.5312 33.0469 29.5312C30.7169 29.5312 28.8281 31.42 28.8281 33.75C28.8281 36.08 30.7169 37.9688 33.0469 37.9688Z" stroke="#323F4C" stroke-width="1.5" stroke-miterlimit="10"/>
<path d="M11.9531 37.9688C14.2831 37.9688 16.1719 36.08 16.1719 33.75C16.1719 31.42 14.2831 29.5312 11.9531 29.5312C9.62317 29.5312 7.73438 31.42 7.73438 33.75C7.73438 36.08 9.62317 37.9688 11.9531 37.9688Z" stroke="#323F4C" stroke-width="1.5" stroke-miterlimit="10"/>
<path d="M28.8281 33.75H16.1719" stroke="#323F4C" stroke-width="1.5" stroke-linecap="round" stroke-linejoin="round"/>
<path d="M7.73438 33.75H4.21875C3.84579 33.75 3.4881 33.6018 3.22438 33.3381C2.96066 33.0744 2.8125 32.7167 2.8125 32.3438V12.6562C2.8125 12.2833 2.96066 11.9256 3.22438 11.6619C3.4881 11.3982 3.84579 11.25 4.21875 11.25H30.9375V30.0964" stroke="#323F4C" stroke-width="1.5" stroke-linecap="round" stroke-linejoin="round"/>
<path d="M30.9375 30.0964V21.0938H42.1875V32.3438C42.1875 32.7167 42.0393 33.0744 41.7756 33.3381C41.5119 33.6018 41.1542 33.75 40.7812 33.75H37.2656" stroke="#323F4C" stroke-width="1.5" stroke-linecap="round" stroke-linejoin="round"/>
</svg>
