<svg width="40" height="40" viewBox="0 0 40 40" fill="none" xmlns="http://www.w3.org/2000/svg">
<path d="M20 12.5V20" stroke="#323F4C" stroke-width="1.5" stroke-linecap="round" stroke-linejoin="round"/>
<path d="M26.4952 23.75L20 20" stroke="#323F4C" stroke-width="1.5" stroke-linecap="round" stroke-linejoin="round"/>
<path d="M11.2246 15.5808H4.97461V9.33081" stroke="#323F4C" stroke-width="1.5" stroke-linecap="round" stroke-linejoin="round"/>
<path d="M10.2779 29.7227C12.2009 31.6457 14.6509 32.9553 17.3181 33.4858C19.9854 34.0164 22.75 33.7441 25.2625 32.7033C27.775 31.6626 29.9225 29.9003 31.4333 27.6391C32.9442 25.3779 33.7506 22.7195 33.7506 20C33.7506 17.2805 32.9442 14.6221 31.4333 12.3609C29.9225 10.0997 27.775 8.33737 25.2625 7.29666C22.75 6.25596 19.9854 5.98366 17.3181 6.51421C14.6509 7.04476 12.2009 8.35432 10.2779 10.2773L4.97461 15.5806" stroke="#323F4C" stroke-width="1.5" stroke-linecap="round" stroke-linejoin="round"/>
</svg>
