<svg width="20" height="20" viewBox="0 0 20 20" fill="none" xmlns="http://www.w3.org/2000/svg">
<path d="M14.4964 6.51071C14.7745 6.2326 14.7745 5.78169 14.4964 5.50357C14.2183 5.22546 13.7674 5.22546 13.4893 5.50357L10.7071 8.28575C10.3166 8.67628 9.68342 8.67627 9.29289 8.28575L6.51071 5.50357C6.2326 5.22546 5.78169 5.22546 5.50357 5.50357C5.22546 5.78169 5.22546 6.2326 5.50357 6.51071L8.28575 9.29289C8.67628 9.68342 8.67627 10.3166 8.28575 10.7071L5.50357 13.4893C5.22546 13.7674 5.22546 14.2183 5.50357 14.4964C5.78169 14.7745 6.2326 14.7745 6.51071 14.4964L9.29289 11.7142C9.68342 11.3237 10.3166 11.3237 10.7071 11.7142L13.4893 14.4964C13.7674 14.7745 14.2183 14.7745 14.4964 14.4964C14.7745 14.2183 14.7745 13.7674 14.4964 13.4893L11.7142 10.7071C11.3237 10.3166 11.3237 9.68342 11.7142 9.29289L14.4964 6.51071Z" fill="#C4C8CD"/>
</svg>
