<svg width="24" height="23" viewBox="0 0 24 23" fill="none" xmlns="http://www.w3.org/2000/svg">
<path d="M12.0878 11.5L11.9883 20.7369" stroke="#323F4C" stroke-width="1.5" stroke-linecap="round" stroke-linejoin="round"/>
<path d="M20.6133 15.7528V7.24778C20.6133 7.1205 20.578 6.9955 20.5111 6.88556C20.4441 6.77563 20.3479 6.68469 20.2323 6.62207L12.3573 2.35646C12.2447 2.29548 12.1176 2.26343 11.9883 2.26343C11.859 2.26343 11.7318 2.29548 11.6192 2.35646L3.74424 6.62207C3.62861 6.68469 3.53242 6.77563 3.46548 6.88556C3.39855 6.9955 3.36328 7.1205 3.36328 7.24778V15.7528C3.36328 15.88 3.39855 16.005 3.46548 16.115C3.53242 16.2249 3.62861 16.3158 3.74424 16.3785L11.6192 20.6441C11.7318 20.7051 11.859 20.7371 11.9883 20.7371C12.1176 20.7371 12.2447 20.7051 12.3573 20.6441L20.2323 16.3785C20.3479 16.3158 20.4441 16.2249 20.5111 16.115C20.578 16.005 20.6133 15.88 20.6133 15.7528V15.7528Z" stroke="#323F4C" stroke-width="1.5" stroke-linecap="round" stroke-linejoin="round"/>
<path d="M20.5127 6.88453L12.0899 11.5001L3.46875 6.88354" stroke="#323F4C" stroke-width="1.5" stroke-linecap="round" stroke-linejoin="round"/>
<path d="M16.5964 13.3425V9.03001L7.89844 4.37231" stroke="#323F4C" stroke-width="1.5" stroke-linecap="round" stroke-linejoin="round"/>
</svg>
