<svg width="18" height="18" viewBox="0 0 18 18" fill="none" xmlns="http://www.w3.org/2000/svg">
<path d="M9 15.75C12.7279 15.75 15.75 12.7279 15.75 9C15.75 5.27208 12.7279 2.25 9 2.25C5.27208 2.25 2.25 5.27208 2.25 9C2.25 12.7279 5.27208 15.75 9 15.75Z" stroke="#B9C1CA" stroke-width="1.5" stroke-linecap="round" stroke-linejoin="round"/>
<path d="M9 10.6875V10.125C9.44501 10.125 9.88002 9.99304 10.25 9.74581C10.62 9.49857 10.9084 9.14717 11.0787 8.73604C11.249 8.32491 11.2936 7.87251 11.2068 7.43605C11.12 6.99959 10.9057 6.59868 10.591 6.28401C10.2763 5.96934 9.87541 5.75505 9.43895 5.66823C9.0025 5.58142 8.5501 5.62597 8.13896 5.79627C7.72783 5.96657 7.37643 6.25496 7.12919 6.62497C6.88196 6.99498 6.75 7.42999 6.75 7.875" stroke="#B9C1CA" stroke-width="1.5" stroke-linecap="round" stroke-linejoin="round"/>
<path d="M9 13.7812C9.46599 13.7812 9.84375 13.4035 9.84375 12.9375C9.84375 12.4715 9.46599 12.0938 9 12.0938C8.53401 12.0938 8.15625 12.4715 8.15625 12.9375C8.15625 13.4035 8.53401 13.7812 9 13.7812Z" fill="#B9C1CA"/>
</svg>
