<svg width="26" height="26" viewBox="0 0 26 26" fill="none" xmlns="http://www.w3.org/2000/svg">
<path d="M17.9252 16.4238C18.2361 16.1501 18.2663 15.6762 17.9926 15.3653C17.7189 15.0544 17.245 15.0242 16.9341 15.2979L17.9252 16.4238ZM12.9778 19.7798L12.4822 20.3428C12.7655 20.5922 13.1901 20.5922 13.4734 20.3428L12.9778 19.7798ZM9.02231 15.298C8.71142 15.0243 8.2375 15.0544 7.96378 15.3653C7.69007 15.6762 7.7202 16.1501 8.03109 16.4238L9.02231 15.298ZM13.7278 5.72931C13.7278 5.31509 13.3921 4.97931 12.9778 4.97931C12.5636 4.97931 12.2278 5.31509 12.2278 5.72931L13.7278 5.72931ZM16.9341 15.2979L12.4823 19.2169L13.4734 20.3428L17.9252 16.4238L16.9341 15.2979ZM13.4735 19.2169L9.02231 15.298L8.03109 16.4238L12.4822 20.3428L13.4735 19.2169ZM13.7278 19.7798L13.7278 5.72931L12.2278 5.72931L12.2278 19.7798L13.7278 19.7798Z" fill="#979797"/>
</svg>
