<svg width="23" height="23" viewBox="0 0 23 23" fill="none" xmlns="http://www.w3.org/2000/svg">
<path d="M17.9688 6.46875C18.7627 6.46875 19.4062 5.82516 19.4062 5.03125C19.4062 4.23734 18.7627 3.59375 17.9688 3.59375C17.1748 3.59375 16.5312 4.23734 16.5312 5.03125C16.5312 5.82516 17.1748 6.46875 17.9688 6.46875Z" stroke="#323F4C" stroke-width="1.5" stroke-linecap="round" stroke-linejoin="round"/>
<path d="M17.9688 3.59375V2.51562" stroke="#323F4C" stroke-width="1.5" stroke-linecap="round" stroke-linejoin="round"/>
<path d="M16.7227 4.3125L15.7891 3.77344" stroke="#323F4C" stroke-width="1.5" stroke-linecap="round" stroke-linejoin="round"/>
<path d="M16.7227 5.75L15.7891 6.28906" stroke="#323F4C" stroke-width="1.5" stroke-linecap="round" stroke-linejoin="round"/>
<path d="M17.9688 6.46875V7.54688" stroke="#323F4C" stroke-width="1.5" stroke-linecap="round" stroke-linejoin="round"/>
<path d="M19.2129 5.75L20.1466 6.28906" stroke="#323F4C" stroke-width="1.5" stroke-linecap="round" stroke-linejoin="round"/>
<path d="M19.2129 4.3125L20.1466 3.77344" stroke="#323F4C" stroke-width="1.5" stroke-linecap="round" stroke-linejoin="round"/>
<path d="M2.7832 19.4054C3.66687 17.8759 4.93749 16.6058 6.46741 15.7228C7.99733 14.8398 9.73269 14.375 11.4991 14.375C13.2656 14.375 15.0009 14.8399 16.5308 15.7229C18.0607 16.6059 19.3313 17.876 20.215 19.4056" stroke="#323F4C" stroke-width="1.5" stroke-linecap="round" stroke-linejoin="round"/>
<path d="M16.7674 10.9348C16.3372 11.9138 15.6425 12.7533 14.7613 13.3591C13.8801 13.9648 12.8474 14.3127 11.7794 14.3637C10.7113 14.4146 9.65015 14.1666 8.7153 13.6476C7.78044 13.1285 7.00893 12.3589 6.4875 11.4254C5.96607 10.4918 5.7154 9.43131 5.76367 8.3631C5.81195 7.2949 6.15726 6.26134 6.76078 5.37863C7.36429 4.49593 8.20208 3.79909 9.17995 3.36645C10.1578 2.93382 11.237 2.78255 12.2961 2.92965" stroke="#323F4C" stroke-width="1.5" stroke-linecap="round" stroke-linejoin="round"/>
</svg>
