<svg width="21" height="21" viewBox="0 0 21 21" fill="none" xmlns="http://www.w3.org/2000/svg">
<path d="M4.59375 19.0312H16.4062" stroke="#323F4C" stroke-width="1.5" stroke-linecap="round" stroke-linejoin="round"/>
<path d="M10.5 11.1562C11.9497 11.1562 13.125 9.981 13.125 8.53125C13.125 7.0815 11.9497 5.90625 10.5 5.90625C9.05025 5.90625 7.875 7.0815 7.875 8.53125C7.875 9.981 9.05025 11.1562 10.5 11.1562Z" stroke="#323F4C" stroke-width="1.5" stroke-linecap="round" stroke-linejoin="round"/>
<path d="M17.0625 8.53125C17.0625 14.4375 10.5 19.0312 10.5 19.0312C10.5 19.0312 3.9375 14.4375 3.9375 8.53125C3.9375 6.79077 4.6289 5.12157 5.85961 3.89086C7.09032 2.66015 8.75952 1.96875 10.5 1.96875C12.2405 1.96875 13.9097 2.66015 15.1404 3.89086C16.3711 5.12157 17.0625 6.79077 17.0625 8.53125V8.53125Z" stroke="#323F4C" stroke-width="1.5" stroke-linecap="round" stroke-linejoin="round"/>
</svg>
