<svg width="10" height="12" viewBox="0 0 10 12" fill="none" xmlns="http://www.w3.org/2000/svg">
<g clip-path="url(#clip0_3453_1634)">
<path fill-rule="evenodd" clip-rule="evenodd" d="M2.35899 2.71362C1.35854 2.71362 0.527064 3.45071 0.451489 4.40458L0.00557618 10.0327C-0.0785344 11.0943 0.799634 12 1.91308 12H8.08694C9.20038 12 10.0786 11.0943 9.99442 10.0327L9.54851 4.40458C9.47294 3.45071 8.64145 2.71362 7.64102 2.71362H2.35899ZM2.55737 3.83925C2.09658 3.83925 1.71328 4.17807 1.67717 4.6173L1.24918 9.82332C1.20883 10.3141 1.61448 10.8025 2.12937 10.8025H7.87115C8.38604 10.8025 8.7917 10.3141 8.75136 9.82332L8.32336 4.6173C8.28723 4.17807 7.90396 3.83925 7.44315 3.83925H2.55737Z" fill="black"/>
<path d="M7.36825 5.22429C7.36825 5.73717 6.97595 6.15296 6.43957 6.15296C5.90319 6.15296 5.42578 5.73717 5.42578 5.22429C5.42578 4.71144 5.86063 4.29565 6.39702 4.29565C6.9334 4.29565 7.36825 4.71144 7.36825 5.22429Z" fill="black"/>
<path d="M4.53067 5.22429C4.53067 5.73717 4.11193 6.15296 3.59541 6.15296C3.07888 6.15296 2.66016 5.73717 2.66016 5.22429C2.66016 4.71144 3.07888 4.29565 3.59541 4.29565C4.11193 4.29565 4.53067 4.71144 4.53067 5.22429Z" fill="black"/>
<path d="M3.09375 1.74744C3.09375 0.782358 3.98704 0 5.00023 0C6.01342 0 6.90669 0.782358 6.90669 1.74744V4.0128C6.90669 4.08376 6.90669 4.4 6.89363 4.50206H5.83682L5.87938 1.74744C5.87938 1.3228 5.44601 0.978568 5.00023 0.978568C4.55444 0.978568 4.12109 1.3228 4.12109 1.74744V4.50206H3.10683C3.09819 4.43335 3.09375 4.08376 3.09375 4.0128V1.74744Z" fill="black"/>
</g>
<defs>
<clipPath id="clip0_3453_1634">
<rect width="10" height="12" fill="white"/>
</clipPath>
</defs>
</svg>
