<svg width="44" height="29" fill="none" xmlns="http://www.w3.org/2000/svg"><g clip-path="url(#clip0_3360_969)"><path clip-rule="evenodd" d="M42.955.475L15.007 8.073a.491.491 0 00-.152.878l6.593 4.564a.807.807 0 01.334.509l1.515 7.746a.325.325 0 00.5.208l5.034-3.353 4.046 2.801a.807.807 0 001.193-.325L43.362.958a.348.348 0 00-.407-.483v0z" stroke="#1A1919"/><path d="M1.207 16.06c-.146.343-.272.678-.379 1.006" stroke="#1A1919" stroke-linecap="round" stroke-linejoin="round"/><path d="M.37 19.407c-.344 6.355 7.54 8.354 11.328 3.487 4.605-5.919-4.73-8.604-3.827-1.073.788 6.57 7.3 7.63 11.193 4.41" stroke="#1A1919" stroke-linecap="round" stroke-linejoin="round" stroke-dasharray="2.02 2.22"/><path d="M19.922 25.4a7.95 7.95 0 00.654-.852" stroke="#1A1919" stroke-linecap="round" stroke-linejoin="round"/><path d="M23.765 21.422l2.174-4.8L42.803 1.301c.139-.131-.026-.352-.19-.255L21.718 13.702" stroke="#1A1919"/><path fill-rule="evenodd" clip-rule="evenodd" d="M28.832 18.625l-2.895-2.003 2.895 2.003z" fill="#FFFFFE"/><path d="M28.832 18.625l-2.895-2.003" stroke="#1A1919"/></g><defs><clipPath id="clip0_3360_969"><path fill="#fff" d="M0 0h44v29H0z"/></clipPath></defs></svg>