<svg viewBox="0 0 26 28" xmlns="http://www.w3.org/2000/svg" xmlns:xlink="http://www.w3.org/1999/xlink"><style>:root&gt;svg{display:none}:root&gt;svg:target{display:block}</style><svg fill="none" viewBox="0 0 24 28" id="sprite--Arrow-down" xmlns="http://www.w3.org/2000/svg"><path d="M12 17.42l5.38-6.083a1.057 1.057 0 00-1.582-1.4L12 14.22 8.202 9.936a1.057 1.057 0 00-1.583 1.401L12 17.42z" fill="#969CA3"/></svg><svg fill="none" viewBox="0 0 24 23" id="sprite--Package" xmlns="http://www.w3.org/2000/svg"><path d="M12.088 11.5l-.1 9.237m8.625-4.984V7.248a.696.696 0 00-.102-.362.737.737 0 00-.279-.264l-7.875-4.266a.775.775 0 00-.738 0L3.744 6.622a.736.736 0 00-.279.264.696.696 0 00-.102.362v8.505a.705.705 0 00.382.626l7.874 4.265a.776.776 0 00.738 0l7.875-4.265a.737.737 0 00.28-.264.697.697 0 00.101-.362v0z" stroke="#323F4C" stroke-width="1.5" stroke-linecap="round" stroke-linejoin="round"/><path d="M20.513 6.885L12.09 11.5 3.469 6.884" stroke="#323F4C" stroke-width="1.5" stroke-linecap="round" stroke-linejoin="round"/><path d="M16.596 13.342V9.03L7.898 4.372" stroke="#323F4C" stroke-width="1.5" stroke-linecap="round" stroke-linejoin="round"/></svg><svg fill="none" viewBox="0 0 18 18" id="sprite--Question" xmlns="http://www.w3.org/2000/svg"><path d="M9 15.75a6.75 6.75 0 100-13.5 6.75 6.75 0 000 13.5z" stroke="#B9C1CA" stroke-width="1.5" stroke-linecap="round" stroke-linejoin="round"/><path d="M9 10.688v-.563a2.25 2.25 0 10-2.25-2.25" stroke="#B9C1CA" stroke-width="1.5" stroke-linecap="round" stroke-linejoin="round"/><path d="M9 13.781a.844.844 0 100-1.687.844.844 0 000 1.687z" fill="#B9C1CA"/></svg><svg fill="none" viewBox="0 0 24 26" id="sprite--Safe" xmlns="http://www.w3.org/2000/svg"><path d="M3.75 12V6.5a.75.75 0 01.75-.75h15a.75.75 0 01.75.75V12c0 7.876-6.685 10.486-8.02 10.928a.708.708 0 01-.46 0C10.435 22.486 3.75 19.877 3.75 12z" stroke="#323F4C" stroke-width="1.5" stroke-linecap="round" stroke-linejoin="round"/><path d="M16.125 11l-5.5 5.25-2.75-2.625" stroke="#323F4C" stroke-width="1.5" stroke-linecap="round" stroke-linejoin="round"/></svg><svg fill="none" viewBox="0 0 26 26" id="sprite--Step" xmlns="http://www.w3.org/2000/svg"><path d="M17.925 16.424a.75.75 0 10-.99-1.126l.99 1.126zm-4.947 3.356l-.496.563a.75.75 0 00.991 0l-.495-.563zm-3.956-4.482a.75.75 0 00-.99 1.126l.99-1.126zm4.706-9.569a.75.75 0 10-1.5 0h1.5zm3.206 9.569l-4.452 3.919.991 1.126 4.452-3.92-.99-1.125zm-3.46 3.919l-4.452-3.919-.99 1.126 4.45 3.919.992-1.126zm.254.563V5.73h-1.5v14.05h1.5z" fill="#979797"/></svg><svg fill="none" viewBox="0 0 24 24" id="sprite--Truck" xmlns="http://www.w3.org/2000/svg"><path d="M22.5 11.25h-6V7.5h3.992a.75.75 0 01.697.471L22.5 11.25zm-21 2.25h15" stroke="#323F4C" stroke-width="1.5" stroke-linecap="round" stroke-linejoin="round"/><path d="M17.625 20.25a2.25 2.25 0 100-4.5 2.25 2.25 0 000 4.5zm-11.25 0a2.25 2.25 0 100-4.5 2.25 2.25 0 000 4.5z" stroke="#323F4C" stroke-width="1.5" stroke-miterlimit="10"/><path d="M15.375 18h-6.75m-4.5 0H2.25a.75.75 0 01-.75-.75V6.75A.75.75 0 012.25 6H16.5v10.051m0 0V11.25h6v6a.75.75 0 01-.75.75h-1.875" stroke="#323F4C" stroke-width="1.5" stroke-linecap="round" stroke-linejoin="round"/></svg></svg>