<svg width="44" height="29" viewBox="0 0 44 29" fill="none" xmlns="http://www.w3.org/2000/svg">
<g clip-path="url(#clip0_3360_969)">
<path fill-rule="evenodd" clip-rule="evenodd" d="M42.9554 0.475316L15.0068 8.07332C14.6044 8.18287 14.5132 8.71346 14.8555 8.95083L21.448 13.5146C21.6218 13.6338 21.741 13.8175 21.7817 14.0237L23.2971 21.7699C23.3411 21.9976 23.6029 22.1072 23.7961 21.9783L28.8314 18.625L32.8773 21.4262C33.2894 21.7119 33.8592 21.5562 34.0696 21.1008L43.3621 0.957575C43.4866 0.689057 43.2409 0.397983 42.9554 0.475316V0.475316Z" stroke="#1A1919"/>
<path d="M1.20695 16.0592C1.061 16.4029 0.935442 16.738 0.828125 17.0656" stroke="#1A1919" stroke-linecap="round" stroke-linejoin="round"/>
<path d="M0.370307 19.4069C0.0258187 25.7622 7.9104 27.761 11.6976 22.8944C16.3026 16.9752 6.96709 14.29 7.8707 21.8214C8.65948 28.3915 15.1715 29.4505 19.0639 26.2305" stroke="#1A1919" stroke-linecap="round" stroke-linejoin="round" stroke-dasharray="2.02 2.22"/>
<path d="M19.9219 25.3998C20.1558 25.1345 20.3748 24.8509 20.5765 24.548" stroke="#1A1919" stroke-linecap="round" stroke-linejoin="round"/>
<path d="M23.7653 21.4224L25.9385 16.6223L42.8033 1.30066C42.9418 1.16962 42.7765 0.949436 42.6123 1.0461L21.7188 13.7019" stroke="#1A1919"/>
<path fill-rule="evenodd" clip-rule="evenodd" d="M28.8318 18.6255L25.9375 16.6224L28.8318 18.6255Z" fill="#FFFFFE"/>
<path d="M28.8318 18.6255L25.9375 16.6224" stroke="#1A1919"/>
</g>
<defs>
<clipPath id="clip0_3360_969">
<rect width="44" height="29" fill="white"/>
</clipPath>
</defs>
</svg>
