<?xml version="1.0" encoding="utf-8"?><svg viewBox="0 0 26 28" xmlns="http://www.w3.org/2000/svg" xmlns:xlink="http://www.w3.org/1999/xlink"><style>:root>svg{display:none}:root>svg:target{display:block}</style><svg fill="none" viewBox="0 0 24 28" id="sprite--Arrow-down" xmlns="http://www.w3.org/2000/svg"><path d="M12 17.42l5.38-6.083a1.057 1.057 0 00-1.582-1.4L12 14.22 8.202 9.936a1.057 1.057 0 00-1.583 1.401L12 17.42z" fill="#969CA3"/></svg><svg fill="none" viewBox="0 0 26 26" id="sprite--Arrow-side" xmlns="http://www.w3.org/2000/svg"><path d="M16.422 8.074a.75.75 0 10-1.126.99l1.126-.99zm3.356 4.947l.563.496a.75.75 0 000-.991l-.563.495zm-4.481 3.956a.75.75 0 101.125.99l-1.126-.99zm0-7.912l3.918 4.452 1.126-.991-3.919-4.452-1.126.99zm3.918 3.46l-3.918 4.452 1.125.99 3.92-4.45-1.127-.992z" fill="#979797"/></svg><svg fill="none" viewBox="0 0 25 24" id="sprite--Cart-arrow" xmlns="http://www.w3.org/2000/svg"><path d="M12.825 16l5.327-5.29a1.001 1.001 0 00-1.41-1.421l-3.917 3.881L8.91 9.289A1.001 1.001 0 007.5 10.71L12.826 16z" fill="#323F4C"/></svg><svg fill="none" viewBox="0 0 20 20" id="sprite--Delete-item" xmlns="http://www.w3.org/2000/svg"><path d="M14.496 6.51a.712.712 0 00-1.007-1.006l-2.782 2.782a1 1 0 01-1.414 0L6.51 5.504A.712.712 0 005.504 6.51l2.782 2.782a1 1 0 010 1.414L5.504 13.49a.712.712 0 101.007 1.007l2.782-2.782a1 1 0 011.414 0l2.782 2.782a.712.712 0 001.007-1.007l-2.782-2.782a1 1 0 010-1.414l2.782-2.782z" fill="#C4C8CD"/></svg><svg fill="none" viewBox="0 0 14 12" id="sprite--Favorite" xmlns="http://www.w3.org/2000/svg"><path d="M7 3.153c-.649-1.106-2.083-2.4-3.65-2.112C.42 1.578.42 4.719 2.3 6.917 4.043 8.955 5.747 10.057 7 11m0-7.847c.649-1.106 2.083-2.4 3.651-2.112 2.928.537 2.928 3.678 1.049 5.876C9.957 8.955 8.253 10.057 7 11" stroke="#323F4C" stroke-width="1.5" stroke-linecap="round" stroke-linejoin="round"/></svg><svg fill="none" viewBox="0 0 21 21" id="sprite--Minus-item" xmlns="http://www.w3.org/2000/svg"><circle cx="10.146" cy="10.146" r="10.146" fill="#F3F3F3"/><path stroke="#323F4C" stroke-width="2" stroke-linecap="round" d="M6.533 10.068h7.223"/></svg><svg fill="none" viewBox="0 0 24 23" id="sprite--Package" xmlns="http://www.w3.org/2000/svg"><path d="M12.088 11.5l-.1 9.237m8.625-4.984V7.248a.696.696 0 00-.102-.362.737.737 0 00-.279-.264l-7.875-4.266a.775.775 0 00-.738 0L3.744 6.622a.736.736 0 00-.279.264.696.696 0 00-.102.362v8.505a.705.705 0 00.382.626l7.874 4.265a.776.776 0 00.738 0l7.875-4.265a.737.737 0 00.28-.264.697.697 0 00.101-.362v0z" stroke="#323F4C" stroke-width="1.5" stroke-linecap="round" stroke-linejoin="round"/><path d="M20.513 6.885L12.09 11.5 3.469 6.884" stroke="#323F4C" stroke-width="1.5" stroke-linecap="round" stroke-linejoin="round"/><path d="M16.596 13.342V9.03L7.898 4.372" stroke="#323F4C" stroke-width="1.5" stroke-linecap="round" stroke-linejoin="round"/></svg><svg fill="none" viewBox="0 0 21 21" id="sprite--Plus-item" xmlns="http://www.w3.org/2000/svg"><circle cx="10.146" cy="10.146" r="10.146" fill="#F3F3F3"/><path stroke="#323F4C" stroke-width="2" stroke-linecap="round" d="M6.535 10.068h7.223m-3.692 3.689V6.534"/></svg><svg fill="none" viewBox="0 0 18 18" id="sprite--Question" xmlns="http://www.w3.org/2000/svg"><path d="M9 15.75a6.75 6.75 0 100-13.5 6.75 6.75 0 000 13.5z" stroke="#B9C1CA" stroke-width="1.5" stroke-linecap="round" stroke-linejoin="round"/><path d="M9 10.688v-.563a2.25 2.25 0 10-2.25-2.25" stroke="#B9C1CA" stroke-width="1.5" stroke-linecap="round" stroke-linejoin="round"/><path d="M9 13.781a.844.844 0 100-1.687.844.844 0 000 1.687z" fill="#B9C1CA"/></svg><svg fill="none" viewBox="0 0 24 26" id="sprite--Safe" xmlns="http://www.w3.org/2000/svg"><path d="M3.75 12V6.5a.75.75 0 01.75-.75h15a.75.75 0 01.75.75V12c0 7.876-6.685 10.486-8.02 10.928a.708.708 0 01-.46 0C10.435 22.486 3.75 19.877 3.75 12z" stroke="#323F4C" stroke-width="1.5" stroke-linecap="round" stroke-linejoin="round"/><path d="M16.125 11l-5.5 5.25-2.75-2.625" stroke="#323F4C" stroke-width="1.5" stroke-linecap="round" stroke-linejoin="round"/></svg><svg fill="none" viewBox="0 0 26 26" id="sprite--Step" xmlns="http://www.w3.org/2000/svg"><path d="M17.925 16.424a.75.75 0 10-.99-1.126l.99 1.126zm-4.947 3.356l-.496.563a.75.75 0 00.991 0l-.495-.563zm-3.956-4.482a.75.75 0 00-.99 1.126l.99-1.126zm4.706-9.569a.75.75 0 10-1.5 0h1.5zm3.206 9.569l-4.452 3.919.991 1.126 4.452-3.92-.99-1.125zm-3.46 3.919l-4.452-3.919-.99 1.126 4.45 3.919.992-1.126zm.254.563V5.73h-1.5v14.05h1.5z" fill="#979797"/></svg><svg fill="none" viewBox="0 0 24 24" id="sprite--Truck" xmlns="http://www.w3.org/2000/svg"><path d="M22.5 11.25h-6V7.5h3.992a.75.75 0 01.697.471L22.5 11.25zm-21 2.25h15" stroke="#323F4C" stroke-width="1.5" stroke-linecap="round" stroke-linejoin="round"/><path d="M17.625 20.25a2.25 2.25 0 100-4.5 2.25 2.25 0 000 4.5zm-11.25 0a2.25 2.25 0 100-4.5 2.25 2.25 0 000 4.5z" stroke="#323F4C" stroke-width="1.5" stroke-miterlimit="10"/><path d="M15.375 18h-6.75m-4.5 0H2.25a.75.75 0 01-.75-.75V6.75A.75.75 0 012.25 6H16.5v10.051m0 0V11.25h6v6a.75.75 0 01-.75.75h-1.875" stroke="#323F4C" stroke-width="1.5" stroke-linecap="round" stroke-linejoin="round"/></svg><svg fill="none" viewBox="0 0 23 23" id="sprite--User-change" xmlns="http://www.w3.org/2000/svg"><path d="M17.969 6.469a1.437 1.437 0 100-2.875 1.437 1.437 0 000 2.875zm0-2.875V2.516m-1.246 1.797l-.934-.54m.934 1.977l-.934.54m2.18.179v1.078m1.244-1.797l.934.54m-.934-1.977l.934-.54M2.783 19.405a10.066 10.066 0 0117.432 0m-3.448-8.47a5.748 5.748 0 11-4.47-8.005" stroke="#323F4C" stroke-width="1.5" stroke-linecap="round" stroke-linejoin="round"/></svg><svg fill="none" viewBox="0 0 21 21" id="sprite--User-data" xmlns="http://www.w3.org/2000/svg"><path d="M10.5 13.125a5.25 5.25 0 100-10.5 5.25 5.25 0 000 10.5z" stroke="#323F4C" stroke-width="1.5" stroke-miterlimit="10"/><path d="M2.543 17.718a9.19 9.19 0 0115.916 0" stroke="#323F4C" stroke-width="1.5" stroke-linecap="round" stroke-linejoin="round"/></svg><svg fill="none" viewBox="0 0 21 21" id="sprite--User-map" xmlns="http://www.w3.org/2000/svg"><path d="M4.594 19.031h11.812M10.5 11.156a2.625 2.625 0 100-5.25 2.625 2.625 0 000 5.25z" stroke="#323F4C" stroke-width="1.5" stroke-linecap="round" stroke-linejoin="round"/><path d="M17.063 8.531c0 5.906-6.563 10.5-6.563 10.5s-6.563-4.593-6.563-10.5a6.563 6.563 0 1113.126 0v0z" stroke="#323F4C" stroke-width="1.5" stroke-linecap="round" stroke-linejoin="round"/></svg><svg fill="none" viewBox="0 0 10 12" id="sprite--Сart" xmlns="http://www.w3.org/2000/svg"><g clip-path="url(#pclip0_3453_1634)" fill="#000"><path fill-rule="evenodd" clip-rule="evenodd" d="M2.359 2.714c-1 0-1.832.737-1.908 1.69l-.445 5.629C-.08 11.094.8 12 1.913 12h6.174c1.113 0 1.992-.906 1.907-1.967L9.55 4.405c-.077-.955-.91-1.691-1.91-1.691H2.359zm.198 1.125c-.46 0-.844.34-.88.778L1.25 9.823c-.04.491.365.98.88.98h5.742c.515 0 .92-.489.88-.98l-.428-5.206c-.036-.439-.419-.778-.88-.778H2.557z"/><path d="M7.368 5.224a.914.914 0 01-.928.929c-.537 0-1.014-.416-1.014-.929 0-.513.435-.928.971-.928s.971.415.971.928zm-2.838 0a.932.932 0 01-.935.929.932.932 0 01-.935-.929c0-.513.419-.928.935-.928.517 0 .936.415.936.928z"/><path d="M3.094 1.747C3.094.782 3.987 0 5 0s1.907.782 1.907 1.747v2.266c0 .07 0 .387-.013.49H5.837l.042-2.756C5.88 1.323 5.446.98 5 .98s-.879.344-.879.768v2.755H3.107a9.183 9.183 0 01-.013-.49V1.748z"/></g><defs><clipPath id="pclip0_3453_1634"><path fill="#fff" d="M0 0h10v12H0z"/></clipPath></defs></svg></svg>