<svg width="14" height="14" viewBox="0 0 14 14" fill="none" xmlns="http://www.w3.org/2000/svg">
<circle cx="7" cy="7" r="7" fill="white"/>
<circle cx="7" cy="7" r="3" fill="black"/>
<path d="M14 7C14 6.08075 13.8189 5.1705 13.4672 4.32122C13.1154 3.47194 12.5998 2.70026 11.9497 2.05025C11.2997 1.40024 10.5281 0.884626 9.67878 0.532843C8.8295 0.18106 7.91925 -4.01818e-08 7 0V1.07811C7.77767 1.07811 8.54773 1.23128 9.26621 1.52889C9.98469 1.82649 10.6375 2.26269 11.1874 2.81259C11.7373 3.36249 12.1735 4.01531 12.4711 4.73379C12.7687 5.45227 12.9219 6.22233 12.9219 7H14Z" fill="black"/>
</svg>
