<svg width="45" height="45" viewBox="0 0 45 45" fill="none" xmlns="http://www.w3.org/2000/svg">
<circle cx="22.5" cy="22.5" r="22.5" fill="white"/>
<path d="M45 22.5C45 34.9264 34.9264 45 22.5 45C10.0736 45 0 34.9264 0 22.5C0 10.0736 10.0736 0 22.5 0C34.9264 0 45 10.0736 45 22.5ZM4.53316 22.5C4.53316 32.4228 12.5772 40.4668 22.5 40.4668C32.4228 40.4668 40.4668 32.4228 40.4668 22.5C40.4668 12.5772 32.4228 4.53316 22.5 4.53316C12.5772 4.53316 4.53316 12.5772 4.53316 22.5Z" fill="#E3E3E3"/>
<path d="M45 22.5C45 19.5453 44.418 16.6194 43.2873 13.8896C42.1566 11.1598 40.4992 8.67942 38.4099 6.5901C36.3206 4.50078 33.8402 2.84344 31.1104 1.71271C28.3806 0.581979 25.4547 -1.29156e-07 22.5 0L22.5 4.53388C24.8593 4.53388 27.1956 4.99859 29.3753 5.90147C31.5551 6.80435 33.5357 8.12773 35.204 9.79604C36.8723 11.4643 38.1956 13.4449 39.0985 15.6247C40.0014 17.8044 40.4661 20.1407 40.4661 22.5H45Z" fill="#2C2C2C"/>
<path d="M23.9147 18.2V28H22.9067V19.096H20.5967V18.2H23.9147Z" fill="black"/>
</svg>
