<svg width="45" height="45" viewBox="0 0 45 45" fill="none" xmlns="http://www.w3.org/2000/svg">
<circle cx="22.5" cy="22.5" r="22.5" fill="white"/>
<path d="M45 22.5C45 34.9264 34.9264 45 22.5 45C10.0736 45 0 34.9264 0 22.5C0 10.0736 10.0736 0 22.5 0C34.9264 0 45 10.0736 45 22.5ZM4.53316 22.5C4.53316 32.4228 12.5772 40.4668 22.5 40.4668C32.4228 40.4668 40.4668 32.4228 40.4668 22.5C40.4668 12.5772 32.4228 4.53316 22.5 4.53316C12.5772 4.53316 4.53316 12.5772 4.53316 22.5Z" fill="#E3E3E3"/>
<path d="M22.5 45C25.4547 45 28.3806 44.418 31.1104 43.2873C33.8402 42.1566 36.3206 40.4992 38.4099 38.4099C40.4992 36.3206 42.1566 33.8402 43.2873 31.1104C44.418 28.3806 45 25.4547 45 22.5C45 19.5453 44.418 16.6194 43.2873 13.8896C42.1566 11.1598 40.4992 8.67942 38.4099 6.5901C36.3206 4.50078 33.8402 2.84344 31.1104 1.71271C28.3806 0.581979 25.4547 -1.29156e-07 22.5 0L22.5 4.53388C24.8593 4.53388 27.1956 4.99859 29.3753 5.90147C31.5551 6.80435 33.5357 8.12773 35.204 9.79604C36.8723 11.4643 38.1956 13.4449 39.0985 15.6247C40.0014 17.8044 40.4661 20.1407 40.4661 22.5C40.4661 24.8593 40.0014 27.1956 39.0985 29.3753C38.1956 31.5551 36.8723 33.5357 35.204 35.204C33.5357 36.8723 31.5551 38.1956 29.3753 39.0985C27.1956 40.0014 24.8593 40.4661 22.5 40.4661L22.5 45Z" fill="#2C2C2C"/>
<path d="M26.4415 27.104V28H19.5675V27.286L23.6415 23.296C24.1548 22.792 24.5002 22.358 24.6775 21.994C24.8642 21.6207 24.9575 21.2473 24.9575 20.874C24.9575 20.2953 24.7568 19.8473 24.3555 19.53C23.9635 19.2033 23.3988 19.04 22.6615 19.04C21.5135 19.04 20.6222 19.404 19.9875 20.132L19.2735 19.516C19.6562 19.068 20.1415 18.7227 20.7295 18.48C21.3268 18.2373 21.9988 18.116 22.7455 18.116C23.7442 18.116 24.5328 18.354 25.1115 18.83C25.6995 19.2967 25.9935 19.9407 25.9935 20.762C25.9935 21.266 25.8815 21.7513 25.6575 22.218C25.4335 22.6847 25.0088 23.2213 24.3835 23.828L21.0515 27.104H26.4415Z" fill="black"/>
</svg>
