<svg width="14" height="14" viewBox="0 0 14 14" fill="none" xmlns="http://www.w3.org/2000/svg">
<circle cx="7" cy="7" r="7" fill="white"/>
<circle cx="7" cy="7" r="3" fill="black"/>
<path d="M0 7C-1.21034e-07 8.38447 0.410543 9.73785 1.17971 10.889C1.94888 12.0401 3.04213 12.9373 4.32122 13.4672C5.6003 13.997 7.00776 14.1356 8.36563 13.8655C9.7235 13.5954 10.9708 12.9287 11.9497 11.9497C12.9287 10.9708 13.5954 9.7235 13.8655 8.36563C14.1356 7.00777 13.997 5.6003 13.4672 4.32122C12.9373 3.04213 12.0401 1.94888 10.889 1.17971C9.73785 0.410543 8.38447 1.04525e-07 7 0V1.07811C8.17124 1.07811 9.31618 1.42542 10.29 2.07613C11.2639 2.72683 12.0229 3.65171 12.4711 4.73379C12.9193 5.81588 13.0366 7.00657 12.8081 8.1553C12.5796 9.30404 12.0156 10.3592 11.1874 11.1874C10.3592 12.0156 9.30404 12.5796 8.1553 12.8081C7.00657 13.0366 5.81587 12.9193 4.73379 12.4711C3.65171 12.0229 2.72683 11.2639 2.07613 10.29C1.42542 9.31618 1.07811 8.17124 1.07811 7H0Z" fill="black"/>
</svg>
