<svg width="45" height="45" viewBox="0 0 45 45" fill="none" xmlns="http://www.w3.org/2000/svg">
<circle cx="22.5" cy="22.5" r="22.5" fill="white"/>
<path d="M45 22.5C45 34.9264 34.9264 45 22.5 45C10.0736 45 0 34.9264 0 22.5C0 10.0736 10.0736 0 22.5 0C34.9264 0 45 10.0736 45 22.5ZM4.53316 22.5C4.53316 32.4228 12.5772 40.4668 22.5 40.4668C32.4228 40.4668 40.4668 32.4228 40.4668 22.5C40.4668 12.5772 32.4228 4.53316 22.5 4.53316C12.5772 4.53316 4.53316 12.5772 4.53316 22.5Z" fill="#E3E3E3"/>
<path d="M0 22.5C-3.89038e-07 26.9501 1.3196 31.3002 3.79193 35.0003C6.26426 38.7004 9.77828 41.5843 13.8896 43.2873C18.001 44.9903 22.525 45.4358 26.8895 44.5677C31.2541 43.6995 35.2632 41.5566 38.4099 38.4099C41.5566 35.2632 43.6995 31.2541 44.5677 26.8895C45.4358 22.525 44.9903 18.001 43.2873 13.8896C41.5843 9.77829 38.7004 6.26427 35.0003 3.79193C31.3002 1.3196 26.9501 3.35972e-07 22.5 0V4.53388C26.0534 4.53388 29.5269 5.58758 32.4814 7.56172C35.436 9.53586 37.7387 12.3418 39.0985 15.6247C40.4583 18.9075 40.8141 22.5199 40.1209 26.005C39.4277 29.4901 37.7166 32.6914 35.204 35.204C32.6914 37.7166 29.4901 39.4277 26.005 40.1209C22.5199 40.8141 18.9075 40.4583 15.6247 39.0985C12.3418 37.7387 9.53586 35.436 7.56172 32.4814C5.58758 29.5269 4.53388 26.0534 4.53388 22.5H0Z" fill="#2C2C2C"/>
<path d="M23.1088 22.4C24.1355 22.456 24.9148 22.736 25.4468 23.24C25.9882 23.7347 26.2588 24.3833 26.2588 25.186C26.2588 25.746 26.1235 26.2453 25.8528 26.684C25.5822 27.1133 25.1808 27.454 24.6488 27.706C24.1168 27.958 23.4682 28.084 22.7028 28.084C21.9935 28.084 21.3215 27.972 20.6868 27.748C20.0615 27.5147 19.5575 27.2067 19.1748 26.824L19.6648 26.026C19.9915 26.362 20.4255 26.6373 20.9668 26.852C21.5082 27.0573 22.0868 27.16 22.7028 27.16C23.5055 27.16 24.1262 26.9873 24.5648 26.642C25.0035 26.2873 25.2228 25.802 25.2228 25.186C25.2228 24.5793 25.0035 24.1033 24.5648 23.758C24.1262 23.4127 23.4635 23.24 22.5768 23.24H21.8768V22.498L24.5928 19.096H19.5808V18.2H25.8808V18.914L23.1088 22.4Z" fill="black"/>
</svg>
