<svg width="14" height="14" viewBox="0 0 14 14" fill="none" xmlns="http://www.w3.org/2000/svg">
<circle cx="7" cy="7" r="7" fill="white"/>
<path d="M14 7C14 10.866 10.866 14 7 14C3.13401 14 0 10.866 0 7C0 3.13401 3.13401 0 7 0C10.866 0 14 3.13401 14 7ZM1.07811 7C1.07811 10.2706 3.72943 12.9219 7 12.9219C10.2706 12.9219 12.9219 10.2706 12.9219 7C12.9219 3.72943 10.2706 1.07811 7 1.07811C3.72943 1.07811 1.07811 3.72943 1.07811 7Z" fill="#52D8A7"/>
<circle cx="7" cy="7" r="3" fill="#52D8A7"/>
</svg>
