<svg width="45" height="45" viewBox="0 0 45 45" fill="none" xmlns="http://www.w3.org/2000/svg">
<circle cx="22.5" cy="22.5" r="22.5" fill="white"/>
<path d="M45 22.5C45 34.9264 34.9264 45 22.5 45C10.0736 45 0 34.9264 0 22.5C0 10.0736 10.0736 0 22.5 0C34.9264 0 45 10.0736 45 22.5ZM4.53316 22.5C4.53316 32.4228 12.5772 40.4668 22.5 40.4668C32.4228 40.4668 40.4668 32.4228 40.4668 22.5C40.4668 12.5772 32.4228 4.53316 22.5 4.53316C12.5772 4.53316 4.53316 12.5772 4.53316 22.5Z" fill="#E3E3E3"/>
<path d="M45 22.5C45 34.9264 34.9264 45 22.5 45C10.0736 45 0 34.9264 0 22.5C0 10.0736 10.0736 0 22.5 0C34.9264 0 45 10.0736 45 22.5ZM4.53388 22.5C4.53388 32.4224 12.5776 40.4661 22.5 40.4661C32.4224 40.4661 40.4661 32.4224 40.4661 22.5C40.4661 12.5776 32.4224 4.53388 22.5 4.53388C12.5776 4.53388 4.53388 12.5776 4.53388 22.5Z" fill="#39BF8E"/>
<path d="M26.4301 25.424H24.4701V28H23.4621V25.424H17.9321V24.696L23.1261 18.2H24.2461L19.2341 24.528H23.4901V22.26H24.4701V24.528H26.4301V25.424Z" fill="black"/>
</svg>
